<?xml version="1.0" standalone="no"?>
<!DOCTYPE svg PUBLIC "-//W3C//DTD SVG 1.1//EN" "http://www.w3.org/Graphics/SVG/1.1/DTD/svg11.dtd" >
<svg>
<metadata>
Created by FontForge 20110222 at Thu Apr 25 01:07:26 2013
 By Orthosie Webmaster
The digitally encoded machine readable software for producing the Typefaces licensed to you is copyrighted (c) 2000, Linotype Library GmbH or its affiliated Linotype-Hell companies. All rights reserved. This software is now the property of Heidelberger Druckmaschinen AG and its licensors and may not be reproduced, used, displayed, modified, disclosed or transferred without the express written approval of Heidelberger Druckmaschinen AG.
</metadata>
<defs>
<font id="LTTetriaBoldRegular" horiz-adv-x="519" >
  <font-face 
    font-family="LTTetriaBoldRegular"
    font-weight="400"
    font-stretch="normal"
    units-per-em="1000"
    panose-1="2 0 5 6 5 0 0 2 0 4"
    ascent="800"
    descent="-200"
    x-height="518"
    cap-height="737"
    bbox="-40 -248 1157 991"
    underline-thickness="50"
    underline-position="-75"
    unicode-range="U+0020-FB02"
  />
<missing-glyph horiz-adv-x="260" 
 />
    <glyph glyph-name=".notdef" horiz-adv-x="260" 
 />
    <glyph glyph-name=".null" horiz-adv-x="0" 
 />
    <glyph glyph-name="nonmarkingreturn" horiz-adv-x="260" 
 />
    <glyph glyph-name="space" unicode=" " horiz-adv-x="260" 
 />
    <glyph glyph-name="exclam" unicode="!" horiz-adv-x="356" 
d="M252 740l-19 -513h-110l-18 512zM100 66q0 32 23 55t55 23t55 -23t23 -55t-23 -55t-55 -23t-55 23t-23 55z" />
    <glyph glyph-name="quotedbl" unicode="&#x22;" horiz-adv-x="429" 
d="M374 811l-18 -253h-100l-18 253h136zM190 811l-18 -253h-100l-17 253h135z" />
    <glyph glyph-name="numbersign" unicode="#" horiz-adv-x="689" 
d="M659 559l-21 -112h-110l-28 -150h111l-20 -111l-112 -1l-35 -185h-111l35 185h-109l-35 -185h-116l35 187l-113 1l23 111h110l27 148h-116l21 112h117l32 180h115l-32 -180h107l33 180h114l-33 -180h111zM414 447h-108l-27 -148h108z" />
    <glyph glyph-name="dollar" unicode="$" horiz-adv-x="570" 
d="M509 199q0 -72 -54 -132q-55 -62 -142 -76v-101h-77v98q-127 14 -179 119l100 50q37 -63 111 -63q42 0 72 32q31 32 31 75q0 49 -32 84q-24 25 -85 58q-171 91 -171 220q0 69 37 116q41 51 118 65v107h77v-103q54 -5 98.5 -36.5t68.5 -77.5l-100 -50q-29 60 -85 60
q-36 0 -57.5 -21t-21.5 -53q0 -60 79 -99q111 -55 158 -112q54 -65 54 -160z" />
    <glyph glyph-name="percent" unicode="%" horiz-adv-x="871" 
d="M704 740l-453 -740h-87l453 740h87zM225 344q-62 0 -102 39q-54 52 -54 166q0 101 50 154q40 42 105 42t105 -40q51 -50 51 -156q0 -116 -51 -164q-44 -41 -104 -41zM225 664q-12 0 -22 -5t-16.5 -17.5t-10 -35.5t-3.5 -59q0 -78 16 -103q12 -19 37 -19q22 0 36 21
q15 22 15 101q0 70 -15 96q-12 21 -37 21zM646 -4q-63 0 -103 39q-53 53 -53 166q0 101 50 154q40 42 105 42t105 -40q51 -50 51 -156q0 -116 -51 -164q-44 -41 -104 -41zM646 316q-12 0 -22 -5t-16.5 -17.5t-10 -35.5t-3.5 -59q0 -78 16 -103q12 -19 37 -19q22 0 36 21
q15 22 15 101q0 70 -15 96q-12 21 -37 21z" />
    <glyph glyph-name="ampersand" unicode="&#x26;" horiz-adv-x="723" 
d="M644 -2q-54 0 -91 21q-20 11 -38.5 26t-35.5 34q-72 -94 -211 -94q-96 0 -158 53q-65 57 -65 151q0 71 40 121q16 21 99 90q-81 91 -81 175q0 36 12 65.5t33.5 50.5t52 33t68.5 12q36 0 65.5 -11.5t50.5 -32.5t32.5 -50.5t11.5 -65.5q0 -53 -26 -97q-8 -14 -25.5 -35
t-43.5 -47l127 -142q17 49 2 93l78 52q24 -39 24 -101q0 -71 -27 -123q35 -39 68 -58q36 -19 94 -20zM327 576q0 28 -15.5 47t-43.5 19q-62 0 -62 -69q0 -31 18 -58q4 -6 42 -46q12 9 42 41q19 25 19 66zM254 321l-57 -56q-31 -30 -31 -78q0 -42 28.5 -69.5t73.5 -27.5
q90 0 138 59z" />
    <glyph glyph-name="quotesingle" unicode="'" horiz-adv-x="238" 
d="M183 805l-18 -253h-92l-18 253h128z" />
    <glyph glyph-name="parenleft" unicode="(" horiz-adv-x="374" 
d="M334 -214q-14 1 -18 0q-53 0 -95 15.5t-71 44t-44.5 68.5t-15.5 90v674q0 105 61.5 161.5t167.5 56.5h14v-112h-15q-92 0 -92 -106v-674q0 -102 92 -105l16 -1v-112z" />
    <glyph glyph-name="parenright" unicode=")" horiz-adv-x="374" 
d="M40 -102l16 1q92 3 92 105v674q0 106 -92 106h-15v112h14q106 0 167.5 -56.5t61.5 -161.5v-674q0 -50 -15.5 -90t-44.5 -68.5t-71 -44t-95 -15.5q-5 1 -18 0v112z" />
    <glyph glyph-name="asterisk" unicode="*" horiz-adv-x="585" 
d="M507 567l-142 -41l91 -116l-80 -57l-84 120l-82 -120l-80 57l89 115l-141 42l31 93l141 -49l-7 149h99l-5 -149l139 49z" />
    <glyph glyph-name="plus" unicode="+" horiz-adv-x="529" 
d="M479 234h-164v-164h-101v164h-164v98h164v164h101v-164h164v-98z" />
    <glyph glyph-name="comma" unicode="," horiz-adv-x="260" 
d="M188 4q-24 -66 -71 -132h-77q19 30 32.5 59.5t23.5 58.5q-52 21 -52 75q0 31 23 54t56 23t55 -23t22 -55q0 -26 -12 -60z" />
    <glyph glyph-name="hyphen" unicode="-" horiz-adv-x="418" 
d="M368 226h-318v98h318v-98z" />
    <glyph glyph-name="hyphen" unicode="&#xad;" horiz-adv-x="418" 
d="M368 226h-318v98h318v-98z" />
    <glyph glyph-name="period" unicode="." horiz-adv-x="301" 
d="M72 63q0 32 23 55t55 23t55 -23t23 -55t-23 -55t-55 -23t-55 23t-23 55z" />
    <glyph glyph-name="slash" unicode="/" horiz-adv-x="467" 
d="M457 812l-306 -887h-109l306 887h109z" />
    <glyph glyph-name="zero" unicode="0" horiz-adv-x="505" 
d="M461 263q0 -117 -45 -190q-54 -89 -164 -89q-106 0 -161 88q-46 74 -46 192q0 117 46 190q55 88 162 88q111 0 165 -89q43 -71 43 -190zM334 264q0 105 -23 142q-21 32 -57 32q-39 0 -58 -31q-24 -38 -24 -143q0 -112 27 -149q19 -27 53 -27t53 25q29 38 29 151z" />
    <glyph glyph-name="one" unicode="1" horiz-adv-x="355" 
d="M270 0h-132l1 414l-77 -19l-22 86l230 60v-541z" />
    <glyph glyph-name="two" unicode="2" horiz-adv-x="460" 
d="M413 0h-360v75l169 204q42 51 42 97q0 27 -18 47t-45 20q-53 0 -84 -45l-70 52q25 40 69 67.5t95 27.5q79 0 131 -43q55 -46 55 -118q0 -66 -59 -140l-112 -141h187v-103z" />
    <glyph glyph-name="three" unicode="3" horiz-adv-x="455" 
d="M410 62q0 -98 -63 -161q-63 -64 -167 -64q-115 0 -175 97l73 55q35 -53 88 -53q51 0 80 35.5t29 90.5q0 58 -31.5 91.5t-83.5 33.5h-20v85h23q37 0 60.5 24.5t23.5 61.5q0 36 -20.5 60t-53.5 24q-43 0 -73 -40l-69 53q25 36 69 60q46 27 95 27q42 0 77 -12.5t59.5 -35.5
t38 -55.5t13.5 -71.5q0 -41 -25 -79q-25 -39 -58 -49q51 -17 80.5 -65t29.5 -112z" />
    <glyph glyph-name="four" unicode="4" horiz-adv-x="543" 
d="M508 103l-1 -103h-89v-140h-120v140h-273v100l241 417l152 1v-415h90zM296 103v285l-152 -285h152z" />
    <glyph glyph-name="five" unicode="5" horiz-adv-x="489" 
d="M446 80q0 -103 -65 -173q-64 -70 -168 -70q-60 0 -108 28t-72 74l72 57q31 -54 96 -54q51 0 81 38.5t30 101.5q0 47 -20 79q-22 37 -63 37q-35 0 -56 -28h-114v349h337v-103h-212v-135q18 18 62 18q94 0 146 -61q54 -62 54 -158z" />
    <glyph glyph-name="six" unicode="6" horiz-adv-x="498" 
d="M453 209q0 -96 -53 -158q-56 -66 -149 -66q-92 0 -150 64q-56 62 -56 154q0 106 48 198l150 287h142l-149 -277q15 5 41 5q81 0 130 -64q46 -58 46 -143zM324 204q0 115 -76 115q-74 0 -74 -117t76 -117q74 0 74 119z" />
    <glyph glyph-name="seven" unicode="7" horiz-adv-x="419" 
d="M384 430l-188 -582h-128l185 568h-243v103h374v-89z" />
    <glyph glyph-name="eight" unicode="8" horiz-adv-x="508" 
d="M458 199q0 -93 -56 -155q-55 -61 -149 -61q-93 0 -148 61t-55 155q0 27 6.5 53t18.5 47.5t29.5 37.5t38.5 25q-16 7 -30 20t-24.5 30.5t-16.5 37t-6 40.5q0 78 53 129q52 51 134 51t135 -51t53 -133q0 -42 -21.5 -75.5t-54.5 -48.5q21 -9 38 -25t29.5 -37.5t19 -47.5
t6.5 -53zM318 489q0 81 -64 81q-30 0 -47.5 -22.5t-17.5 -58.5q0 -34 16 -56q18 -25 48 -25q31 0 48 23.5t17 57.5zM331 189q0 117 -76 117q-78 0 -78 -115q0 -48 20 -77.5t56 -29.5t57 29.5t21 75.5z" />
    <glyph glyph-name="nine" unicode="9" horiz-adv-x="498" 
d="M453 333q0 -97 -66 -245l-107 -241h-140l129 274q-13 -7 -40 -7q-87 0 -137 59q-47 56 -47 145q0 96 53 160q54 64 149 64q90 0 148 -61q58 -59 58 -148zM326 325q0 116 -79 116q-77 0 -77 -117q0 -54 21.5 -84.5t59.5 -30.5q75 0 75 116z" />
    <glyph glyph-name="colon" unicode=":" horiz-adv-x="327" 
d="M87 66q0 32 23 55t55 23t55 -23t23 -55t-23 -55t-55 -23t-55 23t-23 55zM85 400q0 32 23 55t55 23t55 -23t23 -55q0 -33 -23 -56t-55 -23t-55 23t-23 56z" />
    <glyph glyph-name="semicolon" unicode=";" horiz-adv-x="262" 
d="M45 400q0 32 23 55t56 23q32 0 55 -23t23 -55q0 -33 -23 -56t-55 -23q-33 0 -56 23t-23 56zM188 4q-24 -66 -71 -132h-77q19 30 32.5 59.5t23.5 58.5q-52 21 -52 75q0 31 23 54t56 23t55 -23t22 -55q0 -26 -12 -60z" />
    <glyph glyph-name="semicolon" unicode="&#x37e;" horiz-adv-x="262" 
d="M45 400q0 32 23 55t56 23q32 0 55 -23t23 -55q0 -33 -23 -56t-55 -23q-33 0 -56 23t-23 56zM188 4q-24 -66 -71 -132h-77q19 30 32.5 59.5t23.5 58.5q-52 21 -52 75q0 31 23 54t56 23t55 -23t22 -55q0 -26 -12 -60z" />
    <glyph glyph-name="less" unicode="&#x3c;" horiz-adv-x="328" 
d="M273 96h-88l-130 177l134 175h84l-89 -175z" />
    <glyph glyph-name="equal" unicode="=" horiz-adv-x="532" 
d="M482 319h-430v98h430v-98zM480 128h-430v98h430v-98z" />
    <glyph glyph-name="greater" unicode="&#x3e;" horiz-adv-x="328" 
d="M273 273l-130 -177h-88l89 177l-89 175h84z" />
    <glyph glyph-name="question" unicode="?" horiz-adv-x="476" 
d="M416 591q0 -66 -86 -164q-35 -41 -38 -107l-4 -96h-107l-4 96q-3 62 19 111q8 21 57 74q39 42 39 76q0 29 -19 49t-50 20q-50 0 -79 -38l-76 41q22 41 66 70q47 29 99 29q76 0 128 -41q55 -43 55 -120zM157 66q0 32 23 55t55 23t55 -23t23 -55t-23 -55t-55 -23t-55 23
t-23 55z" />
    <glyph glyph-name="at" unicode="@" horiz-adv-x="901" 
d="M836 283q0 -78 -9 -123q-27 -143 -151 -143q-83 0 -120 75q-39 -75 -126 -75q-79 0 -126.5 44.5t-47.5 125.5q0 88 51 136.5t141 47.5h34q21 0 48 -1v17q0 37 -25 63.5t-64 26.5q-57 0 -97 -26l-48 58q62 56 147 56q96 0 147 -52.5t51 -149.5v-201q0 -53 40 -53
q39 0 39 64v87q0 148 -16 208q-46 187 -254 187q-200 0 -249 -184q-20 -75 -20 -181q0 -178 40 -243q64 -108 215 -108q67 0 110 31l45 -65q-70 -56 -161 -56q-208 0 -303 149q-61 96 -63 290q-1 193 72 305q105 160 315 160q180 0 290 -125q95 -109 95 -345zM525 276h-67
q-82 0 -82 -89q0 -84 74 -84q36 0 55.5 25t19.5 63v85z" />
    <glyph glyph-name="A" unicode="A" horiz-adv-x="614" 
d="M604 0h-137l-56 202h-218l-52 -202h-131l218 738h163zM382 312l-74 306h-1l-86 -306h161z" />
    <glyph glyph-name="B" unicode="B" horiz-adv-x="581" 
d="M533 227q0 -109 -66 -168t-184 -59h-209v738h203q101 0 162 -43q70 -49 70 -145q-1 -111 -88 -154q51 -18 83 -68q29 -47 29 -101zM374 541q0 84 -90 84h-79v-180h80q89 0 89 96zM397 227q0 106 -112 106h-80v-221h77q115 0 115 115z" />
    <glyph glyph-name="C" unicode="C" horiz-adv-x="548" 
d="M533 108q-27 -54 -81 -87.5t-121 -33.5q-121 0 -192 71q-83 85 -83 322q0 214 86 300q71 71 178 71q143 0 205 -126l-99 -41q-30 61 -103 61q-65 0 -98 -55q-32 -56 -33 -211q-2 -176 33 -233q32 -53 105 -53q71 0 103 56z" />
    <glyph glyph-name="D" unicode="D" horiz-adv-x="594" 
d="M542 379q0 -168 -50 -259q-66 -120 -224 -120h-192v738h192q274 0 274 -359zM407 378q0 163 -45 210q-36 38 -107 38h-48v-514h51q60 0 98 33q51 45 51 233z" />
    <glyph glyph-name="E" unicode="E" horiz-adv-x="505" 
d="M460 117l-1 -117h-387v738h383v-116h-252v-176h211v-115h-211v-214h257z" />
    <glyph glyph-name="F" unicode="F" horiz-adv-x="476" 
d="M461 622h-255v-173h203v-118h-203v-331h-131v738h386v-116z" />
    <glyph glyph-name="G" unicode="G" horiz-adv-x="618" 
d="M569 310q0 -147 -53 -224q-69 -99 -200 -99q-142 0 -210 116q-50 86 -50 281q0 136 39 226q61 141 223 141q138 0 200 -117l-99 -45q-30 56 -98 56q-60 0 -93 -47q-36 -53 -36 -211q0 -144 21 -211q26 -83 106 -83q68 0 100 59q22 41 22 111v68h-77v106h205v-127z" />
    <glyph glyph-name="H" unicode="H" horiz-adv-x="616" 
d="M541 0h-131v322h-204v-323h-131v738h131l1 -291h203v291h131v-737z" />
    <glyph glyph-name="I" unicode="I" horiz-adv-x="281" 
d="M207 0h-133v737h133v-737z" />
    <glyph glyph-name="J" unicode="J" horiz-adv-x="403" 
d="M341 244q0 -244 -215 -244h-101v101h86q46 0 72.5 30.5t26.5 88.5v403h-158v115h289v-494z" />
    <glyph glyph-name="K" unicode="K" horiz-adv-x="574" 
d="M571 0l-157 -1l-209 350v-350h-131v738h131v-301l182 302h146l-207 -336z" />
    <glyph glyph-name="L" unicode="L" horiz-adv-x="493" 
d="M473 0h-396v738h131v-622h265v-116z" />
    <glyph glyph-name="M" unicode="M" horiz-adv-x="719" 
d="M647 0h-123v517l-143 -199h-46l-140 199v-517h-123v738h107l179 -271h3l178 271h108v-738z" />
    <glyph glyph-name="N" unicode="N" horiz-adv-x="662" 
d="M590 0h-127l-268 514v-514h-123v737h132l263 -515v515h123v-737z" />
    <glyph glyph-name="O" unicode="O" horiz-adv-x="623" 
d="M566 380q0 -233 -79 -319q-67 -73 -175 -73q-113 0 -176 72q-80 92 -80 320q0 196 72 285q69 86 184 86q117 0 185 -86q69 -86 69 -285zM430 381q0 148 -26 205q-29 62 -93 62q-66 0 -94 -63q-25 -54 -25 -204q0 -187 31 -239q31 -51 89 -51q59 0 88 53q30 54 30 237z
" />
    <glyph glyph-name="P" unicode="P" horiz-adv-x="533" 
d="M513 525q0 -107 -71 -166q-66 -54 -178 -54h-68v-305h-131v738h218q111 0 176 -66q54 -56 54 -147zM379 525q0 48 -28.5 74t-77.5 26h-77v-208h78q51 0 78 29.5t27 78.5z" />
    <glyph glyph-name="Q" unicode="Q" horiz-adv-x="623" 
d="M566 380q0 -233 -79 -319q-46 -52 -119 -67v-29q0 -50 59 -50h57v-75h-119q-58 0 -87.5 33.5t-29.5 90.5v31q-71 17 -112 65q-80 92 -80 320q0 196 72 285q69 86 184 86q117 0 185 -86q69 -86 69 -285zM430 381q0 148 -26 205q-29 62 -93 62q-66 0 -94 -63
q-25 -54 -25 -204q0 -187 31 -239q31 -51 89 -51q59 0 88 53q30 54 30 237z" />
    <glyph glyph-name="R" unicode="R" horiz-adv-x="588" 
d="M583 0h-154l-175 305h-53v-305h-131v738h225q100 0 158 -58q59 -59 59 -156q0 -62 -34 -114t-88 -67zM378 524q0 43 -28 70.5t-74 27.5h-75v-203h74q103 0 103 105z" />
    <glyph glyph-name="S" unicode="S" horiz-adv-x="533" 
d="M492 200q0 -86 -70 -149q-71 -63 -176 -63q-69 0 -123 33t-83 88l100 49q41 -62 110 -62q44 0 74 31q31 31 31 75q0 48 -33 83q-23 24 -86 58q-168 90 -168 222q0 81 52 130q55 55 157 55q60 0 110.5 -30t79.5 -84l-102 -51q-11 26 -34.5 43t-51.5 17q-35 0 -55.5 -21.5
t-20.5 -52.5q0 -64 78 -101q111 -53 157 -111q54 -65 54 -159z" />
    <glyph glyph-name="T" unicode="T" horiz-adv-x="484" 
d="M468 621h-161v-622h-131v622h-161v116h453v-116z" />
    <glyph glyph-name="U" unicode="U" horiz-adv-x="598" 
d="M528 250q0 -83 -22 -137q-50 -126 -203 -126q-73 0 -126 31q-60 33 -84 99q-22 57 -22 131v490h131l-1 -509q0 -41 9 -69q20 -65 90 -65q67 0 88 63q9 28 9 72v509h131v-489z" />
    <glyph glyph-name="V" unicode="V" horiz-adv-x="546" 
d="M538 736l-191 -738h-144l-187 738h129l130 -566h3l135 566h125z" />
    <glyph glyph-name="W" unicode="W" horiz-adv-x="828" 
d="M816 738l-134 -738h-142l-121 537h-3l-116 -538h-142l-140 737h123l93 -547h2l112 548h139l119 -544h2l87 545h121z" />
    <glyph glyph-name="X" unicode="X" horiz-adv-x="544" 
d="M536 0l-139 1l-127 258h-3l-127 -259h-132l200 388l-179 350h137l112 -228h2l118 228h132l-189 -354z" />
    <glyph glyph-name="Y" unicode="Y" 
d="M519 737l-197 -391v-346h-130v346l-183 391h129l119 -264h3l130 264h129z" />
    <glyph glyph-name="Z" unicode="Z" horiz-adv-x="568" 
d="M525 -1h-480l-1 106l331 516h-311v116h459v-101l-329 -521h331v-116z" />
    <glyph glyph-name="bracketleft" unicode="[" horiz-adv-x="369" 
d="M329 -218h-239v1112h238v-113h-107v-885h108v-114z" />
    <glyph glyph-name="backslash" unicode="\" horiz-adv-x="431" 
d="M126 812l306 -887h-109l-306 887h109z" />
    <glyph glyph-name="bracketright" unicode="]" horiz-adv-x="369" 
d="M279 -218h-239v114h108v885h-107v113h238v-1112z" />
    <glyph glyph-name="asciicircum" unicode="^" horiz-adv-x="421" 
d="M366 668l-32 -63l-118 58l-113 -57l-35 60l147 95z" />
    <glyph glyph-name="underscore" unicode="_" horiz-adv-x="490" 
d="M490 -156h-490v100h490v-100z" />
    <glyph glyph-name="grave" unicode="`" horiz-adv-x="240" 
d="M279 598h-103l-112 167h148z" />
    <glyph glyph-name="a" unicode="a" 
d="M499 0h-88q-25 0 -44 16.5t-21 43.5q-14 -33 -49.5 -54.5t-76.5 -21.5q-92 0 -138 51q-42 46 -42 122q0 185 197 185h82v5q0 90 -93 90q-51 0 -94 -29l-50 64q65 62 153 62q97 0 151.5 -55t54.5 -151v-194q0 -58 45 -58h13v-76zM314 248h-65q-83 0 -83 -90q0 -34 18 -57
t50 -23q80 0 80 92v78z" />
    <glyph glyph-name="b" unicode="b" horiz-adv-x="530" 
d="M480 283q0 -134 -37 -204q-50 -95 -170 -95q-208 0 -208 276v516h128v-298h2q14 22 44 38t62 16q70 0 117 -47q62 -62 62 -202zM196 271q0 -80 8 -117q17 -74 72 -74q48 0 68 54q12 37 12 137q0 72 -12 113q-16 55 -68 55q-50 0 -66 -52q-14 -42 -14 -116z" />
    <glyph glyph-name="c" unicode="c" horiz-adv-x="457" 
d="M421 88q-57 -103 -160 -103q-92 0 -146 55q-66 67 -66 219q0 151 70 220q55 53 143 53q105 0 157 -106l-84 -39q-23 48 -73 48q-37 0 -58 -28q-27 -38 -27 -151q0 -116 31 -150q22 -24 57 -24q22 0 43 14t30 34z" />
    <glyph glyph-name="d" unicode="d" horiz-adv-x="544" 
d="M524 0h-88q-30 0 -51 17.5t-25 47.5q-40 -79 -122 -79q-80 0 -131 56q-62 68 -62 220q0 145 62 219q43 51 112 51q72 0 107 -54h2v299l128 -1v-649q0 -52 47 -52h21v-75zM329 271q0 74 -14 116q-16 52 -66 52t-68 -56q-12 -41 -12 -112q0 -99 13 -138q18 -53 67 -53
q51 0 67 55q13 42 13 136z" />
    <glyph glyph-name="e" unicode="e" horiz-adv-x="502" 
d="M461 231h-292v-23q0 -125 107 -125q59 0 88 45l83 -39q-61 -103 -175 -103q-226 0 -226 287q0 108 51 180q58 81 163 81q63 0 113 -36q88 -63 88 -239v-28zM341 325q0 114 -85 114q-42 0 -64 -37q-20 -32 -20 -77h169z" />
    <glyph glyph-name="f" unicode="f" horiz-adv-x="360" 
d="M369 654h-71q-67 0 -67 -74v-63h120v-93h-120v-424h-127v423h-73v94h72v72q0 72 39 109.5t111 37.5h116v-82z" />
    <glyph glyph-name="g" unicode="g" horiz-adv-x="522" 
d="M460 31q1 -134 -57 -192q-51 -53 -158 -53h-104v88h99q91 0 91 109v107q-35 -60 -106 -60q-77 0 -123 52q-55 61 -57 193q-2 88 25 151q19 45 57 74q44 32 98 32q88 0 128 -82q2 2 2 0v68h105v-487zM333 277q0 77 -13 110q-18 48 -67 48q-50 0 -68 -48q-14 -37 -14 -110
q0 -80 15 -114q18 -43 67 -43q43 0 62 40q18 36 18 117z" />
    <glyph glyph-name="h" unicode="h" horiz-adv-x="537" 
d="M475 0h-128v345q0 40 -20 65.5t-57 25.5t-58 -31q-18 -27 -18 -70v-335h-128v776h126v-299h2q42 57 118 57q62 0 109 -45q54 -53 54 -150v-339z" />
    <glyph glyph-name="i" unicode="i" horiz-adv-x="275" 
d="M216 667q0 -33 -23 -56t-56 -23q-32 0 -55 23t-23 56q0 32 23 55t55 23q33 0 56 -23t23 -55zM202 0h-129l-1 517h130v-517z" />
    <glyph glyph-name="j" unicode="j" horiz-adv-x="279" 
d="M205 -66q0 -33 -10.5 -61t-29 -47.5t-44 -30.5t-55.5 -11h-106v83h34q83 0 83 102v549h128v-584zM220 667q0 -33 -23 -56t-56 -23q-32 0 -55 23t-23 56q0 32 23 55t55 23q33 0 56 -23t23 -55z" />
    <glyph glyph-name="k" unicode="k" horiz-adv-x="503" 
d="M493 0h-142l-158 251v-251h-128l1 773h128v-417l140 162h151l-188 -211z" />
    <glyph glyph-name="l" unicode="l" horiz-adv-x="301" 
d="M281 0h-86q-124 0 -124 123v650h128v-634q0 -63 58 -63h24v-76z" />
    <glyph glyph-name="m" unicode="m" horiz-adv-x="795" 
d="M729 0h-128v351q0 37 -18.5 62t-50.5 25t-51.5 -23.5t-19.5 -60.5v-354h-128v353q0 37 -19.5 61t-50.5 24q-32 0 -51 -24t-19 -61v-353h-128l-1 518h107v-64q1 1 1 0q13 33 46.5 56.5t73.5 23.5q81 0 121 -79q46 78 136 78q40 0 73.5 -14t57 -39.5t36.5 -61t13 -79.5
v-339z" />
    <glyph glyph-name="n" unicode="n" horiz-adv-x="535" 
d="M474 0h-128v340q0 39 -18 66q-23 32 -58 32q-38 0 -58 -32q-17 -28 -17 -69v-337h-128v518h95v-66h2q40 81 137 81q78 0 124 -55q49 -58 49 -159v-319z" />
    <glyph glyph-name="o" unicode="o" horiz-adv-x="521" 
d="M473 267q0 -158 -71 -226q-58 -55 -140 -55q-86 0 -142 53q-72 69 -72 227q0 140 70 210q57 58 142 58q87 0 143 -55q70 -67 70 -212zM344 263q0 105 -22 139q-23 35 -61 35q-40 0 -62 -37t-22 -137q0 -111 25 -149q19 -31 60 -31q40 0 59 34q23 38 23 146z" />
    <glyph glyph-name="p" unicode="p" 
d="M473 262q0 -147 -57 -220q-42 -55 -117 -55q-69 0 -109 48h-2v-251h-128l1 734h109v-64h2q15 31 48 54q37 25 77 25q81 0 127 -67q49 -70 49 -204zM188 267q0 -94 13 -136q16 -55 67 -55q49 0 67 53q13 39 13 138q0 71 -12 112q-18 56 -68 56q-61 0 -74 -85
q-6 -38 -6 -83z" />
    <glyph glyph-name="q" unicode="q" horiz-adv-x="534" 
d="M469 -215h-128v250h-2q-34 -49 -102 -49q-99 0 -147 92q-35 68 -35 178q0 137 64 213q56 65 147 65q80 0 133 -48q70 -63 70 -220v-481zM342 267q0 74 -14 116q-16 52 -66 52t-68 -56q-12 -41 -12 -112q0 -99 13 -138q18 -53 67 -53q51 0 67 55q13 42 13 136z" />
    <glyph glyph-name="r" unicode="r" horiz-adv-x="348" 
d="M333 425h-55q-90 0 -90 -99v-326h-128v518h119v-70h2q12 29 39.5 49.5t60.5 20.5h52v-93z" />
    <glyph glyph-name="s" unicode="s" horiz-adv-x="428" 
d="M391 148q0 -70 -54 -116q-53 -47 -131 -47q-30 0 -58 9t-51.5 25t-42 39t-29.5 50l85 32q31 -58 88 -58q29 0 47 18.5t18 44.5q0 32 -35 58l-30 18t-31 19q-107 66 -107 153q0 29 11 54.5t31.5 44t50 29.5t67.5 11q101 0 148 -95l-79 -39q-20 39 -59 39q-22 0 -35 -13.5
t-13 -32.5q0 -30 33 -52q16 -8 31 -16.5t30 -16.5q115 -64 115 -158z" />
    <glyph glyph-name="t" unicode="t" horiz-adv-x="370" 
d="M339 424h-117v-288q0 -60 60 -60h42v-76h-108q-53 0 -86 35q-36 37 -36 98v291h-69v94q56 1 79 24q25 28 24 108h93v-132h118v-94z" />
    <glyph glyph-name="u" unicode="u" horiz-adv-x="562" 
d="M542 0h-89q-67 0 -85 62q-42 -77 -134 -77q-83 0 -129 61q-44 56 -44 143v329h128v-351q0 -36 20 -60t55 -24t55.5 25t20.5 62v348h128v-383q0 -59 54 -59h20v-76z" />
    <glyph glyph-name="v" unicode="v" horiz-adv-x="473" 
d="M459 518l-156 -518h-138l-150 518h123l98 -381h1l102 381h120z" />
    <glyph glyph-name="w" unicode="w" horiz-adv-x="719" 
d="M711 518l-129 -518h-140l-85 366l-81 -366h-144l-124 518h116l86 -387h1l84 387h125l86 -387h2l87 387h116z" />
    <glyph glyph-name="x" unicode="x" horiz-adv-x="468" 
d="M332 0l-99 168l-91 -168h-127l152 265l-151 253h123l90 -162l90 162h126l-151 -259l159 -259h-121z" />
    <glyph glyph-name="y" unicode="y" horiz-adv-x="450" 
d="M452 518l-151 -515q-31 -109 -72 -157q-53 -62 -147 -62h-29v82h25q74 0 100 87l14 49l-170 516h122l100 -341h2l90 341h116z" />
    <glyph glyph-name="z" unicode="z" horiz-adv-x="465" 
d="M425 0h-385v134l266 283h-254v101h371v-136l-261 -281h263v-101z" />
    <glyph glyph-name="braceleft" unicode="{" horiz-adv-x="375" 
d="M334 -117v-101h-82q-55 0 -92 43q-36 42 -36 98v278q0 90 -68 90v100q68 0 68 85v276q0 56 36 98q37 43 92 43h83v-101h-23q-51 0 -51 -60v-271q0 -93 -64 -120q64 -31 64 -125v-273q0 -60 53 -60h20z" />
    <glyph glyph-name="bar" unicode="|" horiz-adv-x="372" 
d="M247 -75h-122v888h122v-888z" />
    <glyph glyph-name="braceright" unicode="}" horiz-adv-x="375" 
d="M63 -117q53 0 53 60v273q0 94 64 125q-64 27 -64 120v271q0 60 -51 60h-23v101h83q55 0 91 -43q37 -41 37 -98v-276q0 -85 68 -85v-100q-68 0 -68 -90v-278q0 -57 -37 -98q-36 -43 -91 -43h-82v101h20z" />
    <glyph glyph-name="asciitilde" unicode="~" horiz-adv-x="491" 
d="M446 315q-51 -67 -124 -67q-46 0 -98 26q-29 15 -51 15q-39 0 -58 -34l-66 49q49 67 127 67q36 0 83 -21q48 -20 62 -20q39 0 59 36z" />
    <glyph glyph-name="nonbreakingspace" unicode="&#xa0;" horiz-adv-x="260" 
 />
    <glyph glyph-name="exclamdown" unicode="&#xa1;" horiz-adv-x="356" 
d="M104 -209l19 513h110l18 -512zM256 465q0 -33 -23 -56t-55 -23t-55 23t-23 56q0 32 23 55t55 23t55 -23t23 -55z" />
    <glyph glyph-name="cent" unicode="&#xa2;" horiz-adv-x="477" 
d="M341 387q-18 48 -74 48q-54 0 -73 -61q-11 -38 -11 -119q0 -75 11 -111q20 -62 76 -62q50 0 73 48l86 -41q-50 -87 -126 -100v-93h-77v92q-85 13 -130 84q-40 62 -41 186q-2 112 37 177q46 79 133 94v87h77v-87q87 -16 127 -101z" />
    <glyph glyph-name="sterling" unicode="&#xa3;" horiz-adv-x="627" 
d="M568 36q-60 -36 -160 -36h-349v88h131v247h-89v93h89v74q0 70 11 112q17 60 60 94q53 43 142 46q75 3 133 -28l-38 -71q-25 16 -66 16q-16 0 -29 -3q-84 -23 -84 -136v-98h186v-100h-187v-246h104q99 0 146 29v-81z" />
    <glyph glyph-name="currency" unicode="&#xa4;" horiz-adv-x="530" 
d="M364 375q0 55 -21 90q-26 41 -73 41q-97 0 -97 -133q0 -54 22 -88q25 -40 74 -40t74 40q21 34 21 90zM427 622l58 -48l-58 -66q38 -46 38 -131q0 -81 -43 -139l63 -71l-58 -48l-60 68q-41 -28 -97 -28q-62 0 -103 31l-64 -73l-58 48l69 78q-42 57 -42 140q0 72 36 122
l-63 70l58 49l57 -66q47 34 108 34q62 0 106 -31z" />
    <glyph glyph-name="yen" unicode="&#xa5;" horiz-adv-x="552" 
d="M542 738l-186 -376h141v-82h-150v-71h150v-78h-150v-131h-137v131h-151v79h151v70h-151v80h140l-189 378h152l117 -269l120 269h143z" />
    <glyph glyph-name="brokenbar" unicode="&#xa6;" horiz-adv-x="362" 
d="M242 451h-122v360h122v-360zM242 -75h-122v360h122v-360z" />
    <glyph glyph-name="section" unicode="&#xa7;" horiz-adv-x="580" 
d="M522 273q0 -55 -32.5 -90.5t-84.5 -42.5v-3q40 -22 62 -63.5t22 -87.5q0 -82 -62 -139t-153 -57q-139 0 -203 118l85 35q28 -61 104 -61q45 0 71.5 27.5t26.5 72.5q0 62 -55 102q-18 14 -102 55q-138 66 -138 173q0 52 38 87q37 36 94 34v3q-33 16 -56 58q-22 37 -22 75
q0 84 55 133q56 50 147 50q61 0 111 -36q47 -34 68 -84l-75 -32q-25 61 -98 61q-36 0 -58 -25.5t-22 -61.5q0 -54 55 -96q10 -8 34.5 -21t62.5 -33q125 -63 125 -151zM397 239q5 12 5 23q0 51 -84 89q-41 19 -72 19q-43 0 -60 -38q-5 -13 -5 -24q0 -49 83 -87q39 -19 74 -19
q44 0 59 37z" />
    <glyph glyph-name="dieresis" unicode="&#xa8;" horiz-adv-x="527" 
d="M432 684q0 -29 -20 -49t-49 -20t-49 20t-20 49t20 49t49 20t49 -20t20 -49zM233 684q0 -29 -20 -49t-49 -20t-49 20t-20 49t20 49t49 20t49 -20t20 -49z" />
    <glyph glyph-name="copyright" unicode="&#xa9;" horiz-adv-x="756" 
d="M509 229q-15 -38 -48 -60t-73 -22q-83 0 -122 71q-31 55 -31 147q0 223 153 223q19 0 38 -7t35 -18.5t28 -26.5t18 -32l-69 -34q-13 31 -47 31q-40 0 -50 -51q-6 -29 -6 -85q0 -64 9 -92q14 -38 50 -38q33 0 45 25zM701 372q0 -166 -61 -257q-90 -134 -261 -134t-261 132
q-62 91 -62 259q0 154 65 251q88 130 258 130q171 0 261 -129q61 -88 61 -252zM603 371q0 137 -38 208q-24 43 -72 69q-52 29 -113 29q-124 0 -184 -96q-42 -68 -42 -209q0 -153 41 -217q63 -97 184 -97q120 0 183 96q41 64 41 217z" />
    <glyph glyph-name="ordfeminine" unicode="&#xaa;" horiz-adv-x="434" 
d="M379 412v-66h-49q-19 0 -34.5 15t-16.5 34q-25 -55 -90 -55q-135 0 -135 133q0 68 42 103q37 31 103 31h59v11q0 64 -65 64q-35 0 -63 -21l-45 45q47 44 109 44q147 0 147 -151v-144q0 -43 33 -43h5zM380 229h-319v69h319v-69zM255 535h-50q-57 0 -57 -62q0 -65 51 -65
q56 0 56 64v63z" />
    <glyph glyph-name="guillemotleft" unicode="&#xab;" horiz-adv-x="540" 
d="M475 96h-88l-130 177l131 175h84l-86 -175zM273 96h-88l-130 177l134 175h84l-89 -175z" />
    <glyph glyph-name="logicalnot" unicode="&#xac;" horiz-adv-x="596" 
d="M551 98h-98v206h-408v98h506v-304z" />
    <glyph glyph-name="registered" unicode="&#xae;" horiz-adv-x="756" 
d="M543 169h-97l-90 160h-15v-160h-83v402h126q55 0 85.5 -32.5t30.5 -87.5q0 -42 -25 -73q-14 -17 -33 -26zM419 451q0 46 -48 46h-30v-97h30q48 0 48 51zM701 372q0 -166 -61 -257q-90 -134 -261 -134t-261 132q-62 91 -62 259q0 158 64 252q87 129 259 129
q170 0 260 -129q62 -89 62 -252zM603 371q0 137 -38 208q-24 43 -72 69q-52 29 -113 29q-124 0 -184 -96q-42 -68 -42 -209q0 -153 41 -217q63 -97 184 -97q120 0 183 96q41 64 41 217z" />
    <glyph glyph-name="macron" unicode="&#xaf;" horiz-adv-x="501" 
d="M395 751v-94h-290l1 94h289z" />
    <glyph glyph-name="macron" unicode="&#x2c9;" horiz-adv-x="501" 
d="M395 751v-94h-290l1 94h289z" />
    <glyph glyph-name="degree" unicode="&#xb0;" horiz-adv-x="349" 
d="M306 605q0 -72 -34.5 -115t-95.5 -43q-63 0 -98 43.5t-35 112.5q0 64 36 108q37 43 95 43q60 0 96 -41t36 -108zM230 603q0 90 -56 90q-54 0 -54 -91q0 -93 56 -93q54 0 54 94z" />
    <glyph glyph-name="plusminus" unicode="&#xb1;" horiz-adv-x="530" 
d="M479 325h-164v-164h-101v164h-164v98h164v164h101v-164h164v-98zM480 0h-430v98h430v-98z" />
    <glyph glyph-name="twosuperior" unicode="&#xb2;" horiz-adv-x="376" 
d="M323 324h-270v59l134 160q33 40 33 77q0 22 -14.5 37.5t-34.5 15.5q-39 0 -67 -36l-55 41q20 32 53 53q37 22 76 22q60 0 95.5 -35t35.5 -92q0 -52 -36 -97l-99 -124h149v-81z" />
    <glyph glyph-name="threesuperior" unicode="&#xb3;" horiz-adv-x="378" 
d="M334 425q0 -72 -44 -113t-116 -41q-90 0 -134 80l59 32q19 -40 69 -40q37 0 58.5 23.5t21.5 58.5t-23 57t-60 22h-22v61h22q26 0 42.5 17t16.5 43q0 21 -15 38t-41 17q-36 0 -57 -27l-48 35q15 27 47 46t68 19q60 0 96.5 -33t36.5 -93q0 -63 -50 -86q32 -11 52.5 -42.5
t20.5 -73.5z" />
    <glyph glyph-name="acute" unicode="&#xb4;" horiz-adv-x="256" 
d="M244 756l-113 -167h-102l66 167h149z" />
    <glyph glyph-name="mu" unicode="&#xb5;" horiz-adv-x="596" 
d="M540 -1h-82q-29 0 -53.5 17t-31.5 45q-11 -35 -39.5 -55.5t-64.5 -20.5q-56 0 -75 33v-233h-127l-1 733h128v-348q0 -38 20 -62.5t55 -24.5q76 0 76 93v342h128v-383q0 -60 51 -61h16v-75z" />
    <glyph glyph-name="mu" unicode="&#x3bc;" horiz-adv-x="596" 
d="M540 -1h-82q-29 0 -53.5 17t-31.5 45q-11 -35 -39.5 -55.5t-64.5 -20.5q-56 0 -75 33v-233h-127l-1 733h128v-348q0 -38 20 -62.5t55 -24.5q76 0 76 93v342h128v-383q0 -60 51 -61h16v-75z" />
    <glyph glyph-name="paragraph" unicode="&#xb6;" horiz-adv-x="601" 
d="M526 -140h-115v774h-85v-774h-115v524q-78 0 -118 51q-38 47 -38 126t39 126q43 51 123 51h309v-878z" />
    <glyph glyph-name="periodcentered" unicode="&#xb7;" horiz-adv-x="299" 
d="M71 345q0 32 23 55t55 23q33 0 56 -23t23 -55q0 -33 -23 -56t-56 -23q-32 0 -55 23t-23 56z" />
    <glyph glyph-name="periodcentered" unicode="&#x22c5;" horiz-adv-x="299" 
d="M71 345q0 32 23 55t55 23q33 0 56 -23t23 -55q0 -33 -23 -56t-56 -23q-32 0 -55 23t-23 56z" />
    <glyph glyph-name="cedilla" unicode="&#xb8;" horiz-adv-x="219" 
d="M87 -241q-46 0 -63 26l39 41q7 -5 21 -5q29 0 29 40q0 47 -33 47q-17 0 -24 -6v85h48v-23q85 0 85 -103q0 -48 -27 -75t-75 -27z" />
    <glyph glyph-name="onesuperior" unicode="&#xb9;" horiz-adv-x="332" 
d="M231 339h-86v307l-60 -14l-19 65l165 49v-407z" />
    <glyph glyph-name="ordmasculine" unicode="&#xba;" horiz-adv-x="430" 
d="M376 228h-319v69h319v-69zM323 379q-44 -41 -105 -41q-121 0 -152 126q-9 37 -9 85q0 103 53 159q40 43 106 43t107 -40q54 -53 54 -161q0 -120 -54 -171zM217 680q-33 0 -50 -28.5t-17 -104.5q0 -85 19 -114q16 -24 49 -24q30 0 47 26q18 27 18 112q0 39 -4.5 64.5
t-12.5 41t-20.5 21.5t-28.5 6z" />
    <glyph glyph-name="guillemotright" unicode="&#xbb;" horiz-adv-x="540" 
d="M485 273l-130 -177h-88l89 177l-89 175h84zM283 273l-130 -177h-88l89 177l-86 175h84z" />
    <glyph glyph-name="onequarter" unicode="&#xbc;" horiz-adv-x="815" 
d="M771 144h-69v-101h-87v101h-200v84l180 293h107v-296h68zM594 740l-395 -740h-95l395 740h95zM617 225v198l-119 -198h119zM215 339h-86v307l-60 -14l-19 65l165 49v-407z" />
    <glyph glyph-name="onehalf" unicode="&#xbd;" horiz-adv-x="803" 
d="M756 44h-269v59l133 161q33 40 33 76q0 23 -14.5 38t-34.5 15q-38 0 -67 -35l-55 41q20 31 55 52.5t74 21.5q60 0 95.5 -34.5t35.5 -91.5q0 -54 -36 -97l-99 -125h149v-81zM594 740l-395 -740h-95l395 740h95zM215 339h-86v307l-60 -14l-19 65l165 49v-407z" />
    <glyph glyph-name="threequarters" unicode="&#xbe;" horiz-adv-x="908" 
d="M684 740l-395 -740h-95l395 740h95zM851 144h-69v-101h-87v101h-200v84l180 293h107v-296h68zM697 225v198l-119 -198h119zM328 424q0 -72 -44 -113t-116 -41q-90 0 -134 80l59 32q19 -40 69 -40q37 0 58.5 23.5t21.5 58.5t-23 57t-60 22h-22v61h22q26 0 42.5 17t16.5 43
q0 21 -15 38t-41 17q-36 0 -57 -27l-48 35q15 27 47 46t68 19q60 0 96 -34t36 -92q0 -64 -49 -86q32 -11 52.5 -42.5t20.5 -73.5z" />
    <glyph glyph-name="questiondown" unicode="&#xbf;" horiz-adv-x="476" 
d="M310 463q0 -33 -23 -56t-55 -23t-55 23t-23 56q0 32 23 55t55 23t55 -23t23 -55zM51 -62q0 66 86 164q35 40 38 107l4 96h107l4 -96q3 -62 -19 -111q-8 -21 -57 -74q-39 -42 -39 -76q0 -30 19 -49.5t50 -19.5q50 0 79 38l76 -41q-22 -43 -66 -70q-47 -29 -99 -29
q-76 0 -128 41q-55 43 -55 120z" />
    <glyph glyph-name="Agrave" unicode="&#xc0;" horiz-adv-x="614" 
d="M604 0h-137l-56 202h-218l-52 -202h-131l218 738h163zM382 312l-74 306h-1l-86 -306h161zM368 795h-103l-112 167h148z" />
    <glyph glyph-name="Aacute" unicode="&#xc1;" horiz-adv-x="614" 
d="M604 0h-137l-56 202h-218l-52 -202h-131l218 738h163zM382 312l-74 306h-1l-86 -306h161zM453 962l-113 -167h-102l66 167h149z" />
    <glyph glyph-name="Acircumflex" unicode="&#xc2;" horiz-adv-x="614" 
d="M604 0h-137l-56 202h-218l-52 -202h-131l218 738h163zM382 312l-74 306h-1l-86 -306h161zM452 859l-32 -60l-118 58l-113 -57l-35 57l147 95z" />
    <glyph glyph-name="Atilde" unicode="&#xc3;" horiz-adv-x="614" 
d="M604 0h-137l-56 202h-218l-52 -202h-131l218 738h163zM382 312l-74 306h-1l-86 -306h161zM467 853q-13 -24 -41 -42t-55 -18q-43 0 -79 21q-31 19 -50 19q-36 0 -55 -27l-52 38q14 27 43.5 45.5t61.5 18.5q19 0 37 -6t34 -13.5t30.5 -13.5t25.5 -6q29 0 49 23z" />
    <glyph glyph-name="Adieresis" unicode="&#xc4;" horiz-adv-x="614" 
d="M604 0h-137l-56 202h-218l-52 -202h-131l218 738h163zM382 312l-74 306h-1l-86 -306h161zM472 867q0 -29 -20 -49t-49 -20t-49 20t-20 49t20 49t49 20t49 -20t20 -49zM273 867q0 -29 -20 -49t-49 -20t-49 20t-20 49t20 49t49 20t49 -20t20 -49z" />
    <glyph glyph-name="Aring" unicode="&#xc5;" horiz-adv-x="614" 
d="M604 0h-137l-56 202h-218l-52 -202h-131l218 738h163zM382 312l-74 306h-1l-86 -306h161zM306 769q-96 0 -96 113q0 48 26 78.5t72 30.5q96 0 96 -109q0 -113 -98 -113zM344 882q0 61 -37 61t-37 -62q0 -64 37 -64t37 65z" />
    <glyph glyph-name="AE" unicode="&#xc6;" horiz-adv-x="872" 
d="M832 117l-1 -118h-381v220h-198l-108 -220h-138l378 739h444l1 -119l-242 1l-1 -174h200v-111h-197v-218h243zM450 324v315l-149 -315h149z" />
    <glyph glyph-name="Ccedilla" unicode="&#xc7;" horiz-adv-x="553" 
d="M531 108q-26 -52 -77 -85t-114 -36v-23q85 -4 85 -87v-29q0 -42 -30 -65.5t-72 -23.5q-44 0 -64 26l39 41q8 -5 26 -5q8 0 16.5 10.5t8.5 20.5v21q0 10 -8.5 20.5t-17.5 10.5q-26 0 -32 -2v87q-95 10 -154 69q-83 85 -83 322q0 214 86 300q71 71 178 71q143 0 205 -126
l-99 -41q-28 61 -103 61q-66 0 -98 -56t-33 -210q-2 -176 33 -233q32 -53 105 -53q71 0 103 56z" />
    <glyph glyph-name="Egrave" unicode="&#xc8;" horiz-adv-x="503" 
d="M460 117l-1 -117h-387v738h383v-116h-252v-176h211v-115h-211v-214h257zM347 794h-103l-112 167h148z" />
    <glyph glyph-name="Eacute" unicode="&#xc9;" horiz-adv-x="503" 
d="M460 117l-1 -117h-387v738h383v-116h-252v-176h211v-115h-211v-214h257zM385 962l-113 -167h-102l66 167h149z" />
    <glyph glyph-name="Ecircumflex" unicode="&#xca;" horiz-adv-x="493" 
d="M460 117l-1 -117h-387v738h383v-116h-252v-176h211v-115h-211v-214h257zM413 862l-32 -60l-118 58l-113 -57l-35 57l147 95z" />
    <glyph glyph-name="Edieresis" unicode="&#xcb;" horiz-adv-x="503" 
d="M460 117l-1 -117h-387v738h383v-116h-252v-176h211v-115h-211v-214h257zM432 867q0 -29 -20 -49t-49 -20t-49 20t-20 49t20 49t49 20t49 -20t20 -49zM233 867q0 -29 -20 -49t-49 -20t-49 20t-20 49t20 49t49 20t49 -20t20 -49z" />
    <glyph glyph-name="Igrave" unicode="&#xcc;" horiz-adv-x="324" 
d="M245 0h-133v737h133v-737zM232 793h-103l-112 167h148z" />
    <glyph glyph-name="Iacute" unicode="&#xcd;" horiz-adv-x="317" 
d="M207 0h-133v737h133v-737zM300 961l-113 -167h-102l66 167h149z" />
    <glyph glyph-name="Icircumflex" unicode="&#xce;" horiz-adv-x="282" 
d="M201 0h-133v737h133v-737zM283 861l-32 -60l-118 58l-113 -57l-35 57l147 95z" />
    <glyph glyph-name="Idieresis" unicode="&#xcf;" horiz-adv-x="391" 
d="M251 0h-133v737h133v-737zM356 865q0 -29 -20 -49t-49 -20t-49 20t-20 49t20 49t49 20t49 -20t20 -49zM157 865q0 -29 -20 -49t-49 -20t-49 20t-20 49t20 49t49 20t49 -20t20 -49z" />
    <glyph glyph-name="Eth" unicode="&#xd0;" horiz-adv-x="595" 
d="M205 446h104v-115h-104v-219h51q60 0 98 33q51 45 51 233q0 163 -45 210q-36 38 -107 38h-48v-180zM10 446h64v292h192q274 0 274 -359q0 -168 -50 -259q-66 -120 -224 -120h-192v331h-64v115z" />
    <glyph glyph-name="Ntilde" unicode="&#xd1;" horiz-adv-x="668" 
d="M590 0h-127l-268 514v-514h-123v737h132l263 -515v515h123v-737zM497 855q-13 -24 -41 -42t-55 -18q-43 0 -79 21q-31 19 -50 19q-36 0 -55 -27l-52 38q14 27 43.5 45.5t61.5 18.5q19 0 37 -6t34 -13.5t30.5 -13.5t25.5 -6q29 0 49 23z" />
    <glyph glyph-name="Ograve" unicode="&#xd2;" horiz-adv-x="623" 
d="M566 380q0 -233 -79 -319q-67 -73 -175 -73q-113 0 -176 72q-80 92 -80 320q0 196 72 285q69 86 184 86q117 0 185 -86q69 -86 69 -285zM430 381q0 148 -26 205q-29 62 -93 62q-66 0 -94 -63q-25 -54 -25 -204q0 -187 31 -239q31 -51 89 -51q59 0 88 53q30 54 30 237z
M383 795h-103l-112 167h148z" />
    <glyph glyph-name="Oacute" unicode="&#xd3;" horiz-adv-x="623" 
d="M566 380q0 -233 -79 -319q-67 -73 -175 -73q-113 0 -176 72q-80 92 -80 320q0 196 72 285q69 86 184 86q117 0 185 -86q69 -86 69 -285zM430 381q0 148 -26 205q-29 62 -93 62q-66 0 -94 -63q-25 -54 -25 -204q0 -187 31 -239q31 -51 89 -51q59 0 88 53q30 54 30 237z
M468 962l-113 -167h-102l66 167h149z" />
    <glyph glyph-name="Ocircumflex" unicode="&#xd4;" horiz-adv-x="623" 
d="M566 380q0 -233 -79 -319q-67 -73 -175 -73q-113 0 -176 72q-80 92 -80 320q0 196 72 285q69 86 184 86q117 0 185 -86q69 -86 69 -285zM430 381q0 148 -26 205q-29 62 -93 62q-66 0 -94 -63q-25 -54 -25 -204q0 -187 31 -239q31 -51 89 -51q59 0 88 53q30 54 30 237z
M460 863l-32 -60l-118 58l-113 -57l-35 57l147 95z" />
    <glyph glyph-name="Otilde" unicode="&#xd5;" horiz-adv-x="635" 
d="M573 380q0 -233 -79 -319q-67 -73 -175 -73q-113 0 -176 72q-80 92 -80 320q0 196 72 285q69 86 184 86q117 0 185 -86q69 -86 69 -285zM437 381q0 148 -26 205q-29 62 -93 62q-66 0 -94 -63q-25 -54 -25 -204q0 -187 31 -239q31 -51 89 -51q59 0 88 53q30 54 30 237z
M487 854q-13 -24 -41 -42t-55 -18q-43 0 -79 21q-31 19 -50 19q-36 0 -55 -27l-52 38q14 27 43.5 45.5t61.5 18.5q19 0 37 -6t34 -13.5t30.5 -13.5t25.5 -6q29 0 49 23z" />
    <glyph glyph-name="Odieresis" unicode="&#xd6;" horiz-adv-x="623" 
d="M566 380q0 -233 -79 -319q-67 -73 -175 -73q-113 0 -176 72q-80 92 -80 320q0 196 72 285q69 86 184 86q117 0 185 -86q69 -86 69 -285zM430 381q0 148 -26 205q-29 62 -93 62q-66 0 -94 -63q-25 -54 -25 -204q0 -187 31 -239q31 -51 89 -51q59 0 88 53q30 54 30 237z
M480 867q0 -29 -20 -49t-49 -20t-49 20t-20 49t20 49t49 20t49 -20t20 -49zM281 867q0 -29 -20 -49t-49 -20t-49 20t-20 49t20 49t49 20t49 -20t20 -49z" />
    <glyph glyph-name="multiply" unicode="&#xd7;" horiz-adv-x="538" 
d="M475 127l-73 -73l-133 134l-134 -134l-72 73l134 133l-134 134l72 72l134 -134l133 134l73 -72l-135 -134z" />
    <glyph glyph-name="Oslash" unicode="&#xd8;" horiz-adv-x="621" 
d="M215 166q22 -75 100 -75q61 0 88 50q30 54 30 240q0 89 -6 136zM408 588q-27 60 -94 60q-66 0 -93 -63q-26 -60 -26 -204q0 -46 1.5 -80.5t3.5 -58.5zM18 -60l94 155q-53 91 -53 285q0 197 71 286q67 85 185 85q101 0 158 -57l86 143l44 -28l-94 -156q60 -81 60 -273
q0 -235 -77 -321q-65 -71 -177 -71q-108 0 -170 62l-83 -138z" />
    <glyph glyph-name="Ugrave" unicode="&#xd9;" horiz-adv-x="604" 
d="M528 250q0 -83 -22 -137q-50 -126 -203 -126q-73 0 -126 31q-60 33 -84 99q-22 57 -22 131v490h131l-1 -509q0 -41 9 -69q20 -65 90 -65q67 0 88 63q9 28 9 72v509h131v-489zM376 795h-103l-112 167h148z" />
    <glyph glyph-name="Uacute" unicode="&#xda;" horiz-adv-x="604" 
d="M528 250q0 -83 -22 -137q-50 -126 -203 -126q-73 0 -126 31q-60 33 -84 99q-22 57 -22 131v490h131l-1 -509q0 -41 9 -69q20 -65 90 -65q67 0 88 63q9 28 9 72v509h131v-489zM424 962l-113 -167h-102l66 167h149z" />
    <glyph glyph-name="Ucircumflex" unicode="&#xdb;" horiz-adv-x="604" 
d="M528 250q0 -83 -22 -137q-50 -126 -203 -126q-73 0 -126 31q-60 33 -84 99q-22 57 -22 131v490h131l-1 -509q0 -41 9 -69q20 -65 90 -65q67 0 88 63q9 28 9 72v509h131v-489zM445 864l-32 -60l-118 58l-113 -57l-35 57l147 95z" />
    <glyph glyph-name="Udieresis" unicode="&#xdc;" horiz-adv-x="604" 
d="M528 250q0 -83 -22 -137q-50 -126 -203 -126q-73 0 -126 31q-60 33 -84 99q-22 57 -22 131v490h131l-1 -509q0 -41 9 -69q20 -65 90 -65q67 0 88 63q9 28 9 72v509h131v-489zM468 866q0 -29 -20 -49t-49 -20t-49 20t-20 49t20 49t49 20t49 -20t20 -49zM269 866
q0 -29 -20 -49t-49 -20t-49 20t-20 49t20 49t49 20t49 -20t20 -49z" />
    <glyph glyph-name="Yacute" unicode="&#xdd;" horiz-adv-x="523" 
d="M521 737l-197 -391v-346h-130v346l-183 391h129l119 -264h3l130 264h129zM379 962l-113 -167h-102l66 167h149z" />
    <glyph glyph-name="Thorn" unicode="&#xde;" horiz-adv-x="608" 
d="M550 374q0 -94 -65 -157q-69 -66 -184 -66h-98v-151h-128v740h128v-142h98q118 0 186 -68q63 -62 63 -156zM422 374q0 57 -34 90.5t-97 33.5h-88v-247h88q63 0 97 33t34 90z" />
    <glyph glyph-name="germandbls" unicode="&#xdf;" horiz-adv-x="542" 
d="M500 192q0 -85 -54 -137q-57 -54 -158 -54h-47v84l36 1q42 1 69 31.5t27 75.5q0 41 -24 73q-12 13 -24 25.5t-23 25.5q-39 43 -39 97q0 49 38 90q31 32 31 65q0 58 -65 58q-78 0 -78 -116l1 -511l-125 -2v493q0 112 51.5 173.5t154.5 61.5q72 0 121 -37q54 -41 54 -108
q0 -42 -35 -88q-26 -35 -26 -61q0 -34 31 -71q14 -17 27 -33t27 -32q30 -47 30 -104z" />
    <glyph glyph-name="agrave" unicode="&#xe0;" 
d="M499 0h-88q-25 0 -44 16.5t-21 43.5q-14 -33 -49.5 -54.5t-76.5 -21.5q-92 0 -138 51q-42 46 -42 122q0 185 197 185h82v5q0 90 -93 90q-51 0 -94 -29l-50 64q65 62 153 62q97 0 151.5 -55t54.5 -151v-194q0 -58 45 -58h13v-76zM314 248h-65q-83 0 -83 -90q0 -34 18 -57
t50 -23q80 0 80 92v78zM306 601h-103l-112 167h148z" />
    <glyph glyph-name="aacute" unicode="&#xe1;" 
d="M499 0h-88q-25 0 -44 16.5t-21 43.5q-14 -33 -49.5 -54.5t-76.5 -21.5q-92 0 -138 51q-42 46 -42 122q0 185 197 185h82v5q0 90 -93 90q-51 0 -94 -29l-50 64q65 62 153 62q97 0 151.5 -55t54.5 -151v-194q0 -58 45 -58h13v-76zM314 248h-65q-83 0 -83 -90q0 -34 18 -57
t50 -23q80 0 80 92v78zM404 768l-113 -167h-102l66 167h149z" />
    <glyph glyph-name="acircumflex" unicode="&#xe2;" 
d="M499 0h-88q-25 0 -44 16.5t-21 43.5q-14 -33 -49.5 -54.5t-76.5 -21.5q-92 0 -138 51q-42 46 -42 122q0 185 197 185h82v5q0 90 -93 90q-51 0 -94 -29l-50 64q65 62 153 62q97 0 151.5 -55t54.5 -151v-194q0 -58 45 -58h13v-76zM314 248h-65q-83 0 -83 -90q0 -34 18 -57
t50 -23q80 0 80 92v78zM398 660l-32 -60l-118 58l-113 -57l-35 57l147 95z" />
    <glyph glyph-name="atilde" unicode="&#xe3;" 
d="M499 0h-88q-25 0 -44 16.5t-21 43.5q-14 -33 -49.5 -54.5t-76.5 -21.5q-92 0 -138 51q-42 46 -42 122q0 185 197 185h82v5q0 90 -93 90q-51 0 -94 -29l-50 64q65 62 153 62q97 0 151.5 -55t54.5 -151v-194q0 -58 45 -58h13v-76zM314 248h-65q-83 0 -83 -90q0 -34 18 -57
t50 -23q80 0 80 92v78zM420 666q-13 -24 -41 -42t-55 -18q-43 0 -79 21q-31 19 -50 19q-36 0 -55 -27l-52 38q14 27 43.5 45.5t61.5 18.5q19 0 37 -6t34 -13.5t30.5 -13.5t25.5 -6q29 0 49 23z" />
    <glyph glyph-name="adieresis" unicode="&#xe4;" 
d="M499 0h-88q-25 0 -44 16.5t-21 43.5q-14 -33 -49.5 -54.5t-76.5 -21.5q-92 0 -138 51q-42 46 -42 122q0 185 197 185h82v5q0 90 -93 90q-51 0 -94 -29l-50 64q65 62 153 62q97 0 151.5 -55t54.5 -151v-194q0 -58 45 -58h13v-76zM314 248h-65q-83 0 -83 -90q0 -34 18 -57
t50 -23q80 0 80 92v78zM421 666q0 -29 -20 -49t-49 -20t-49 20t-20 49t20 49t49 20t49 -20t20 -49zM222 666q0 -29 -20 -49t-49 -20t-49 20t-20 49t20 49t49 20t49 -20t20 -49z" />
    <glyph glyph-name="aring" unicode="&#xe5;" 
d="M499 0h-88q-25 0 -44 16.5t-21 43.5q-14 -33 -49.5 -54.5t-76.5 -21.5q-92 0 -138 51q-42 46 -42 122q0 185 197 185h82v5q0 90 -93 90q-51 0 -94 -29l-50 64q65 62 153 62q97 0 151.5 -55t54.5 -151v-194q0 -58 45 -58h13v-76zM314 248h-65q-83 0 -83 -90q0 -34 18 -57
t50 -23q80 0 80 92v78zM255 593q-96 0 -96 113q0 48 26 78.5t72 30.5q96 0 96 -109q0 -113 -98 -113zM293 706q0 61 -37 61t-37 -62q0 -64 37 -64t37 65z" />
    <glyph glyph-name="ae" unicode="&#xe6;" horiz-adv-x="759" 
d="M729 232h-293l1 -48q5 -52 38 -78q29 -23 70 -23q61 0 88 47l84 -41q-55 -103 -172 -103q-129 0 -177 83q-8 -18 -23 -33t-34.5 -26t-42 -17t-45.5 -6q-40 0 -73.5 12t-57.5 34.5t-37.5 54.5t-13.5 72q0 182 195 181l85 -1v15q0 42 -26.5 66t-66.5 24q-54 0 -94 -36
l-51 61q64 64 146 64q111 0 163 -79q59 77 142 77q99 0 150 -78q45 -68 45 -173v-49zM619 325q0 117 -88 117q-45 0 -70 -39q-23 -34 -23 -78h181zM316 244h-79q-77 0 -77 -84q0 -44 24 -66q20 -19 52 -19q36 0 58 24.5t22 69.5v75z" />
    <glyph glyph-name="ccedilla" unicode="&#xe7;" horiz-adv-x="466" 
d="M427 88q-55 -99 -150 -103v-21q40 1 62.5 -25t22.5 -71v-20q0 -38 -28.5 -63.5t-73.5 -25.5q-46 0 -63 26l39 41q5 -5 25 -5q8 0 16.5 10.5t8.5 20.5v21q0 10 -8.5 20.5t-17.5 10.5q-25 0 -31 -2v86q-67 11 -108 52q-66 67 -66 219q0 151 70 220q55 53 143 53
q105 0 157 -106l-84 -39q-23 48 -73 48q-37 0 -58 -28q-27 -38 -27 -151q0 -116 31 -150q22 -24 57 -24q22 0 43 14t30 34z" />
    <glyph glyph-name="egrave" unicode="&#xe8;" horiz-adv-x="502" 
d="M461 231h-292v-23q0 -125 107 -125q59 0 88 45l83 -39q-61 -103 -175 -103q-226 0 -226 287q0 108 51 180q58 81 163 81q63 0 113 -36q88 -63 88 -239v-28zM341 325q0 114 -85 114q-42 0 -64 -37q-20 -32 -20 -77h169zM326 602h-103l-112 167h148z" />
    <glyph glyph-name="eacute" unicode="&#xe9;" horiz-adv-x="502" 
d="M461 231h-292v-23q0 -125 107 -125q59 0 88 45l83 -39q-61 -103 -175 -103q-226 0 -226 287q0 108 51 180q58 81 163 81q63 0 113 -36q88 -63 88 -239v-28zM341 325q0 114 -85 114q-42 0 -64 -37q-20 -32 -20 -77h169zM420 768l-113 -167h-102l66 167h149z" />
    <glyph glyph-name="ecircumflex" unicode="&#xea;" horiz-adv-x="492" 
d="M451 231h-292v-23q0 -125 107 -125q59 0 88 45l83 -39q-61 -103 -175 -103q-226 0 -226 287q0 108 51 180q58 81 163 81q63 0 113 -36q88 -63 88 -239v-28zM331 325q0 114 -85 114q-42 0 -64 -37q-20 -32 -20 -77h169zM394 658l-32 -60l-118 58l-113 -57l-35 57l147 95z
" />
    <glyph glyph-name="edieresis" unicode="&#xeb;" horiz-adv-x="502" 
d="M461 231h-292v-23q0 -125 107 -125q59 0 88 45l83 -39q-61 -103 -175 -103q-226 0 -226 287q0 108 51 180q58 81 163 81q63 0 113 -36q88 -63 88 -239v-28zM341 325q0 114 -85 114q-42 0 -64 -37q-20 -32 -20 -77h169zM432 667q0 -29 -20 -49t-49 -20t-49 20t-20 49
t20 49t49 20t49 -20t20 -49zM233 667q0 -29 -20 -49t-49 -20t-49 20t-20 49t20 49t49 20t49 -20t20 -49z" />
    <glyph glyph-name="igrave" unicode="&#xec;" horiz-adv-x="271" 
d="M208 0h-129l-1 520h129zM195 601h-103l-112 167h148z" />
    <glyph glyph-name="iacute" unicode="&#xed;" horiz-adv-x="268" 
d="M193 0h-129l-1 520h129zM288 768l-113 -167h-102l66 167h149z" />
    <glyph glyph-name="icircumflex" unicode="&#xee;" horiz-adv-x="298" 
d="M213 0h-129l-1 520h129zM298 657l-32 -60l-118 58l-113 -57l-35 57l147 95z" />
    <glyph glyph-name="idieresis" unicode="&#xef;" horiz-adv-x="285" 
d="M207 0h-129l-1 520h129zM313 666q0 -29 -20 -49t-49 -20t-49 20t-20 49t20 49t49 20t49 -20t20 -49zM114 666q0 -29 -20 -49t-49 -20t-49 20t-20 49t20 49t49 20t49 -20t20 -49z" />
    <glyph glyph-name="eth" unicode="&#xf0;" horiz-adv-x="498" 
d="M164 226q0 -140 89 -140q83 0 83 142q0 133 -84 133q-88 0 -88 -135zM114 540l-61 58l99 52q-23 25 -43.5 43.5t-39.5 32.5l74 38q19 -11 41 -29.5t48 -43.5l94 47l58 -60l-95 -47q78 -74 128 -187q46 -104 46 -220q0 -110 -58 -175q-57 -65 -155 -65q-105 0 -163 75
q-52 67 -52 172q0 93 51 158q56 68 146 68q44 0 70 -21q-33 89 -96 152z" />
    <glyph glyph-name="ntilde" unicode="&#xf1;" horiz-adv-x="540" 
d="M474 0h-128v340q0 39 -18 66q-23 32 -58 32q-38 0 -58 -32q-17 -28 -17 -69v-337h-128v518h95v-66h2q40 81 137 81q78 0 124 -55q49 -58 49 -159v-319zM439 668q-13 -24 -41 -42t-55 -18q-43 0 -79 21q-31 19 -50 19q-36 0 -55 -27l-52 38q14 27 43.5 45.5t61.5 18.5
q19 0 37 -6t34 -13.5t30.5 -13.5t25.5 -6q29 0 49 23z" />
    <glyph glyph-name="ograve" unicode="&#xf2;" horiz-adv-x="532" 
d="M473 267q0 -158 -71 -226q-58 -55 -140 -55q-86 0 -142 53q-72 69 -72 227q0 140 70 210q57 58 142 58q87 0 143 -55q70 -67 70 -212zM344 263q0 105 -22 139q-23 35 -61 35q-40 0 -62 -37t-22 -137q0 -111 25 -149q19 -31 60 -31q40 0 59 34q23 38 23 146zM315 600h-103
l-112 167h148z" />
    <glyph glyph-name="oacute" unicode="&#xf3;" horiz-adv-x="535" 
d="M473 267q0 -158 -71 -226q-58 -55 -140 -55q-86 0 -142 53q-72 69 -72 227q0 140 70 210q57 58 142 58q87 0 143 -55q70 -67 70 -212zM344 263q0 105 -22 139q-23 35 -61 35q-40 0 -62 -37t-22 -137q0 -111 25 -149q19 -31 60 -31q40 0 59 34q23 38 23 146zM428 768
l-113 -167h-102l66 167h149z" />
    <glyph glyph-name="ocircumflex" unicode="&#xf4;" horiz-adv-x="538" 
d="M476 267q0 -158 -71 -226q-58 -55 -140 -55q-86 0 -142 53q-72 69 -72 227q0 140 70 210q57 58 142 58q87 0 143 -55q70 -67 70 -212zM347 263q0 105 -22 139q-23 35 -61 35q-40 0 -62 -37t-22 -137q0 -111 25 -149q19 -31 60 -31q40 0 59 34q23 38 23 146zM419 657
l-32 -60l-118 58l-113 -57l-35 57l147 95z" />
    <glyph glyph-name="otilde" unicode="&#xf5;" horiz-adv-x="532" 
d="M473 267q0 -158 -71 -226q-58 -55 -140 -55q-86 0 -142 53q-72 69 -72 227q0 140 70 210q57 58 142 58q87 0 143 -55q70 -67 70 -212zM344 263q0 105 -22 139q-23 35 -61 35q-40 0 -62 -37t-22 -137q0 -111 25 -149q19 -31 60 -31q40 0 59 34q23 38 23 146zM434 668
q-13 -24 -41 -42t-55 -18q-43 0 -79 21q-31 19 -50 19q-36 0 -55 -27l-52 38q14 27 43.5 45.5t61.5 18.5q19 0 37 -6t34 -13.5t30.5 -13.5t25.5 -6q29 0 49 23z" />
    <glyph glyph-name="odieresis" unicode="&#xf6;" horiz-adv-x="535" 
d="M473 267q0 -158 -71 -226q-58 -55 -140 -55q-86 0 -142 53q-72 69 -72 227q0 140 70 210q57 58 142 58q87 0 143 -55q70 -67 70 -212zM344 263q0 105 -22 139q-23 35 -61 35q-40 0 -62 -37t-22 -137q0 -111 25 -149q19 -31 60 -31q40 0 59 34q23 38 23 146zM434 667
q0 -29 -20 -49t-49 -20t-49 20t-20 49t20 49t49 20t49 -20t20 -49zM235 667q0 -29 -20 -49t-49 -20t-49 20t-20 49t20 49t49 20t49 -20t20 -49z" />
    <glyph glyph-name="divide" unicode="&#xf7;" horiz-adv-x="510" 
d="M336 422q0 -33 -23.5 -56.5t-54.5 -23.5q-32 0 -55 23.5t-23 56.5t23 56.5t55 23.5q31 0 54.5 -23.5t23.5 -56.5zM465 195h-420v97h420v-97zM335 66q0 -33 -23.5 -56.5t-54.5 -23.5q-32 0 -55 23.5t-23 56.5t23 56.5t55 23.5q31 0 54.5 -23.5t23.5 -56.5z" />
    <glyph glyph-name="oslash" unicode="&#xf8;" horiz-adv-x="535" 
d="M200 120q19 -37 64 -37q39 0 60 34t21 146q0 27 -1.5 49t-3.5 39zM317 413q-23 24 -55 24q-39 0 -61 -36q-22 -35 -22 -138q0 -48 3 -73zM11 -93l92 152q-54 67 -54 207q0 137 68 208q58 60 144 60q68 0 112 -29l89 148l44 -27l-93 -154q61 -67 61 -205q0 -160 -70 -226
q-58 -55 -141 -55q-70 0 -122 37l-86 -143z" />
    <glyph glyph-name="ugrave" unicode="&#xf9;" horiz-adv-x="562" 
d="M542 0h-89q-67 0 -85 62q-42 -77 -134 -77q-83 0 -129 61q-44 56 -44 143v329h128v-351q0 -36 20 -60t55 -24t55.5 25t20.5 62v348h128v-383q0 -59 54 -59h20v-76zM339 601h-103l-112 167h148z" />
    <glyph glyph-name="uacute" unicode="&#xfa;" horiz-adv-x="562" 
d="M542 0h-89q-67 0 -85 62q-42 -77 -134 -77q-83 0 -129 61q-44 56 -44 143v329h128v-351q0 -36 20 -60t55 -24t55.5 25t20.5 62v348h128v-383q0 -59 54 -59h20v-76zM397 768l-113 -167h-102l66 167h149z" />
    <glyph glyph-name="ucircumflex" unicode="&#xfb;" horiz-adv-x="562" 
d="M542 0h-89q-67 0 -85 62q-42 -77 -134 -77q-83 0 -129 61q-44 56 -44 143v329h128v-351q0 -36 20 -60t55 -24t55.5 25t20.5 62v348h128v-383q0 -59 54 -59h20v-76zM414 659l-32 -60l-118 58l-113 -57l-35 57l147 95z" />
    <glyph glyph-name="udieresis" unicode="&#xfc;" horiz-adv-x="562" 
d="M542 0h-89q-67 0 -85 62q-42 -77 -134 -77q-83 0 -129 61q-44 56 -44 143v329h128v-351q0 -36 20 -60t55 -24t55.5 25t20.5 62v348h128v-383q0 -59 54 -59h20v-76zM435 666q0 -29 -20 -49t-49 -20t-49 20t-20 49t20 49t49 20t49 -20t20 -49zM236 666q0 -29 -20 -49
t-49 -20t-49 20t-20 49t20 49t49 20t49 -20t20 -49z" />
    <glyph glyph-name="yacute" unicode="&#xfd;" horiz-adv-x="449" 
d="M452 518l-151 -515q-31 -109 -72 -157q-53 -62 -147 -62h-29v82h25q74 0 100 87l14 49l-170 516h122l100 -341h2l90 341h116zM378 768l-113 -167h-102l66 167h149z" />
    <glyph glyph-name="thorn" unicode="&#xfe;" horiz-adv-x="525" 
d="M468 265q0 -278 -180 -278q-66 0 -97 54h-3v-289h-128v1024h128v-289h3q13 24 41 39t56 15q180 0 180 -276zM344 273q0 91 -13 124q-19 49 -68 49q-67 0 -76 -109q-3 -30 -3 -69q0 -95 12 -135q15 -52 68 -52q56 0 71 65q9 37 9 127z" />
    <glyph glyph-name="ydieresis" unicode="&#xff;" horiz-adv-x="459" 
d="M452 518l-151 -515q-31 -109 -72 -157q-53 -62 -147 -62h-29v82h25q74 0 100 87l14 49l-170 516h122l100 -341h2l90 341h116zM403 664q0 -29 -20 -49t-49 -20t-49 20t-20 49t20 49t49 20t49 -20t20 -49zM204 664q0 -29 -20 -49t-49 -20t-49 20t-20 49t20 49t49 20t49 -20
t20 -49z" />
    <glyph glyph-name="dotlessi" unicode="&#x131;" horiz-adv-x="260" 
d="M195 0h-129l-1 520h129z" />
    <glyph glyph-name="Lslash" unicode="&#x141;" horiz-adv-x="521" 
d="M501 0h-348v261l-84 -77l-61 64l145 132v359h131v-240l101 91l61 -66l-162 -145v-261h217v-118z" />
    <glyph glyph-name="lslash" unicode="&#x142;" horiz-adv-x="418" 
d="M418 527l-163 -147v-229q0 -63 58 -63h37v-88h-99q-61 0 -93 34t-32 89v141l-4 -3l-79 -75l-63 66l146 132v390h129v-274l102 92z" />
    <glyph glyph-name="OE" unicode="&#x152;" horiz-adv-x="825" 
d="M780 117l-1 -117h-448q-283 0 -283 379q0 359 282 359h445v-116h-252v-176h211v-115h-211v-214h257zM387 112v514h-54q-100 0 -131 -81q-19 -51 -19 -167q0 -111 21 -175q31 -91 129 -91h54z" />
    <glyph glyph-name="oe" unicode="&#x153;" horiz-adv-x="807" 
d="M729 231h-304q0 -69 30.5 -108.5t90.5 -39.5q58 0 84 47l86 -41q-58 -103 -170 -103q-109 0 -168 86q-50 -86 -148 -86q-105 0 -159 69q-58 73 -58 202q0 112 36 177q55 100 180 100q97 0 154 -81q51 79 147 79q95 0 149 -74q50 -68 50 -177v-50zM617 325
q0 51 -23.5 82.5t-65.5 31.5q-45 0 -72 -37q-23 -32 -26 -77h187zM308 263q0 102 -22 139q-20 35 -61 35q-39 0 -62 -35q-21 -35 -21 -139q0 -111 24 -148q21 -32 61 -32q38 0 59 35q22 34 22 145z" />
    <glyph glyph-name="Scaron" unicode="&#x160;" horiz-adv-x="537" 
d="M492 200q0 -86 -70 -149q-71 -63 -176 -63q-69 0 -123 33t-83 88l100 49q41 -62 110 -62q44 0 74 31q31 31 31 75q0 48 -33 83q-23 24 -86 58q-168 90 -168 222q0 81 52 130q55 55 157 55q60 0 110.5 -30t79.5 -84l-102 -51q-11 26 -34.5 43t-51.5 17q-35 0 -55.5 -21.5
t-20.5 -52.5q0 -64 78 -101q111 -53 157 -111q54 -65 54 -159zM424 885l-151 -93l-147 95l35 57l113 -57l119 58z" />
    <glyph glyph-name="scaron" unicode="&#x161;" horiz-adv-x="448" 
d="M391 148q0 -70 -54 -116q-53 -47 -131 -47q-30 0 -58 9t-51.5 25t-42 39t-29.5 50l85 32q31 -58 88 -58q29 0 47 18.5t18 44.5q0 32 -35 58l-30 18t-31 19q-107 66 -107 153q0 29 11 54.5t31.5 44t50 29.5t67.5 11q101 0 148 -95l-79 -39q-20 39 -59 39q-22 0 -35 -13.5
t-13 -32.5q0 -30 33 -52q16 -8 31 -16.5t30 -16.5q115 -64 115 -158zM368 665l-151 -93l-147 95l35 57l113 -57l119 58z" />
    <glyph glyph-name="Ydieresis" unicode="&#x178;" 
d="M519 737l-197 -391v-346h-130v346l-183 391h129l119 -264h3l130 264h129zM428 865q0 -29 -20 -49t-49 -20t-49 20t-20 49t20 49t49 20t49 -20t20 -49zM229 865q0 -29 -20 -49t-49 -20t-49 20t-20 49t20 49t49 20t49 -20t20 -49z" />
    <glyph glyph-name="Zcaron" unicode="&#x17d;" horiz-adv-x="569" 
d="M525 -1h-480l-1 106l331 516h-311v116h459v-101l-329 -521h331v-116zM430 869l-151 -93l-147 95l35 57l113 -57l119 58z" />
    <glyph glyph-name="zcaron" unicode="&#x17e;" horiz-adv-x="465" 
d="M425 0h-385v134l266 283h-254v101h371v-136l-261 -281h263v-101zM386 653l-151 -93l-147 95l35 57l113 -57l119 58z" />
    <glyph glyph-name="florin" unicode="&#x192;" horiz-adv-x="480" 
d="M456 713l-44 -1q-104 -2 -117 -130l-11 -101h86v-93h-92l-46 -388q-12 -101 -73 -153q-52 -46 -129 -46h-40l1 81h36q62 0 73 74l57 431h-85v94h91l11 94q26 218 210 218h72v-80z" />
    <glyph glyph-name="circumflex" unicode="&#x2c6;" horiz-adv-x="421" 
d="M409 668l-32 -60l-118 58l-113 -57l-35 57l147 95z" />
    <glyph glyph-name="caron" unicode="&#x2c7;" horiz-adv-x="415" 
d="M322 713l-151 -93l-147 95l35 57l113 -57l119 58z" />
    <glyph glyph-name="breve" unicode="&#x2d8;" horiz-adv-x="415" 
d="M385 655l-151 -93l-147 95l35 57l113 -57l118 58z" />
    <glyph glyph-name="dotaccent" unicode="&#x2d9;" horiz-adv-x="462" 
d="M311 688q0 -35 -23.5 -59.5t-56.5 -24.5t-56.5 24.5t-23.5 59.5t23.5 60t56.5 25t56.5 -25t23.5 -60z" />
    <glyph glyph-name="ring" unicode="&#x2da;" horiz-adv-x="240" 
d="M237 562q-96 0 -96 113q0 48 26 78.5t72 30.5q96 0 96 -109q0 -113 -98 -113zM275 675q0 61 -37 61t-37 -62q0 -64 37 -64t37 65z" />
    <glyph glyph-name="ogonek" unicode="&#x2db;" horiz-adv-x="500" 
d="M334 -145h-121l-44 146h97z" />
    <glyph glyph-name="tilde" unicode="&#x2dc;" horiz-adv-x="401" 
d="M367 641q-13 -24 -41 -42t-55 -18q-43 0 -79 21q-31 19 -50 19q-36 0 -55 -27l-52 38q14 27 43.5 45.5t61.5 18.5q19 0 37 -6t34 -13.5t30.5 -13.5t25.5 -6q29 0 49 23z" />
    <glyph glyph-name="hungarumlaut" unicode="&#x2dd;" horiz-adv-x="401" 
d="M197 756l-91 -174h-92l44 174h139zM387 756l-91 -174h-92l44 174h139z" />
    <glyph glyph-name="Delta" unicode="&#x394;" horiz-adv-x="710" 
d="M700 0h-690l354 759zM494 125l-140 314l-137 -314h277z" />
    <glyph glyph-name="Omega" unicode="&#x3a9;" horiz-adv-x="768" 
d="M330 0h-295v163h16q5 -19 10 -31t13 -18.5t19.5 -8.5t29.5 -2h148v14q-79 23 -122 57q-22 18 -39.5 42t-30 52t-19 59t-6.5 61q0 74 39 143q40 69 115.5 106.5t175.5 37.5q101 0 175 -37q77 -38 115 -107q40 -68 40 -143q0 -60 -26 -120q-25 -59 -69 -93.5t-121 -57.5
v-14h148q18 0 29.5 2t19 8.5t12.5 18.5t10 31h17v-163h-296l16 142q60 23 90 64q51 70 51 183q0 126 -56 189t-152 63q-100 0 -150 -56q-63 -71 -63 -195q0 -72 19.5 -126t55.5 -85q22 -22 66 -37z" />
    <glyph glyph-name="pi" unicode="&#x3c0;" horiz-adv-x="505" 
d="M485 447v-71h-113l-10 -148q-3 -39 -3 -67q0 -68 16 -83t38 -15q47 0 56 59h17q-17 -135 -108 -135q-43 0 -69 26t-26 78q0 17 2.5 53t7.5 91l13 141h-103q-5 -90 -11.5 -154t-13.5 -106q-13 -81 -32 -106q-17 -23 -47 -23q-22 0 -37.5 13t-15.5 34t26 56q38 51 58 108
q10 28 17 72.5t12 105.5h-34q-40 0 -61 -18t-40 -51h-18q15 52 37 86q22 33 46 44q23 10 84 10h312z" />
    <glyph glyph-name="endash" unicode="&#x2013;" horiz-adv-x="602" 
d="M557 226h-512v98h512v-98z" />
    <glyph glyph-name="emdash" unicode="&#x2014;" horiz-adv-x="1081" 
d="M1006 226h-931v98h931v-98z" />
    <glyph glyph-name="quoteleft" unicode="&#x2018;" horiz-adv-x="260" 
d="M72 621q24 66 71 132h77q-19 -30 -32.5 -59.5t-23.5 -58.5q52 -21 52 -75q0 -30 -23 -53t-56 -23t-55 22.5t-22 54.5q0 27 12 60z" />
    <glyph glyph-name="quoteright" unicode="&#x2019;" horiz-adv-x="260" 
d="M188 615q-12 -34 -30 -66.5t-41 -64.5h-77q19 29 32.5 58.5t23.5 58.5q-52 21 -52 75q0 31 23 54t56 23t55 -23t22 -55q0 -26 -12 -60z" />
    <glyph glyph-name="quotesinglbase" unicode="&#x201a;" horiz-adv-x="260" 
d="M188 4q-24 -66 -71 -132h-77q19 30 32.5 59.5t23.5 58.5q-52 21 -52 75q0 31 23 54t56 23t55 -23t22 -55q0 -26 -12 -60z" />
    <glyph glyph-name="quotedblleft" unicode="&#x201c;" horiz-adv-x="454" 
d="M72 621q24 66 71 132h77q-19 -30 -32.5 -59.5t-23.5 -58.5q52 -21 52 -75q0 -30 -23 -53t-56 -23t-55 22.5t-22 54.5q0 27 12 60zM266 621q24 66 71 132h77q-18 -30 -32 -59.5t-24 -58.5q52 -21 52 -75q0 -15 -6 -29t-16.5 -24.5t-25 -16.5t-30.5 -6q-34 0 -56 22.5
t-22 54.5q0 27 12 60z" />
    <glyph glyph-name="quotedblright" unicode="&#x201d;" horiz-adv-x="454" 
d="M382 615q-11 -34 -29 -66.5t-42 -64.5h-77q19 29 32.5 58.5t23.5 58.5q-51 21 -51 75q0 15 6 29t16.5 24.5t25 17t30.5 6.5q34 0 55.5 -23t21.5 -55q0 -26 -12 -60zM188 615q-12 -34 -30 -66.5t-41 -64.5h-77q19 29 32.5 58.5t23.5 58.5q-52 21 -52 75q0 31 23 54t56 23
t55 -23t22 -55q0 -26 -12 -60z" />
    <glyph glyph-name="quotedblbase" unicode="&#x201e;" horiz-adv-x="454" 
d="M188 4q-24 -66 -71 -132h-77q19 30 32.5 59.5t23.5 58.5q-52 21 -52 75q0 31 23 54t56 23t55 -23t22 -55q0 -26 -12 -60zM382 4q-24 -66 -71 -132h-77q19 30 32.5 59.5t23.5 58.5q-52 21 -52 75q0 31 23 54t56 23t55 -23t22 -55q0 -26 -12 -60z" />
    <glyph glyph-name="dagger" unicode="&#x2020;" horiz-adv-x="590" 
d="M535 419h-180v-419h-120v419h-180v111h180v208h120v-208h180v-111z" />
    <glyph glyph-name="daggerdbl" unicode="&#x2021;" horiz-adv-x="594" 
d="M539 -4h-179v-225h-128v225h-177v117h177v285h-177v117h177v225h128v-225h179v-117h-179v-285h179v-117z" />
    <glyph glyph-name="bullet" unicode="&#x2022;" horiz-adv-x="446" 
d="M371 352q0 -64 -44 -110q-44 -45 -104 -45q-62 0 -105 45q-43 44 -43 110q0 64 43 110t105 46q61 0 104 -46q44 -47 44 -110z" />
    <glyph glyph-name="ellipsis" unicode="&#x2026;" horiz-adv-x="1037" 
d="M901 67q0 -34 -23 -58.5t-56 -24.5q-16 0 -30.5 6.5t-25 18t-16.5 26.5t-6 32q0 35 23 59t55 24q33 0 56 -24t23 -59zM593 68q0 -34 -23 -58.5t-56 -24.5q-16 0 -30.5 6.5t-25 18t-16.5 26.5t-6 32t6 32t16.5 26.5t25 18t30.5 6.5q33 0 56 -24.5t23 -58.5zM293 69
q0 -35 -23 -59t-55 -24q-33 0 -56 24t-23 59q0 34 23 58.5t56 24.5q16 0 30.5 -6.5t25 -18t16.5 -26.5t6 -32z" />
    <glyph glyph-name="perthousand" unicode="&#x2030;" horiz-adv-x="1221" 
d="M701 740l-453 -740h-87l453 740h87zM225 344q-62 0 -102 39q-54 52 -54 166q0 101 50 154q40 42 105 42t105 -40q51 -50 51 -156q0 -116 -51 -164q-44 -41 -104 -41zM225 664q-12 0 -22 -5t-16.5 -17.5t-10 -35.5t-3.5 -59q0 -78 16 -103q12 -19 37 -19q22 0 36 21
q15 22 15 101q0 70 -15 96q-12 21 -37 21zM646 -4q-63 0 -103 39q-53 53 -53 166q0 101 50 154q40 42 105 42t105 -40q51 -50 51 -156q0 -116 -51 -164q-44 -41 -104 -41zM646 316q-12 0 -22 -5t-16.5 -17.5t-10 -35.5t-3.5 -59q0 -78 16 -103q12 -19 37 -19q22 0 36 21
q15 22 15 101q0 70 -15 96q-12 21 -37 21zM1002 -4q-63 0 -103 39q-53 53 -53 166q0 101 50 154q40 42 105 42t105 -40q51 -50 51 -156q0 -116 -51 -164q-44 -41 -104 -41zM1002 316q-12 0 -22 -5t-16.5 -17.5t-10 -35.5t-3.5 -59q0 -78 16 -103q12 -19 37 -19q22 0 36 21
q15 22 15 101q0 70 -15 96q-12 21 -37 21z" />
    <glyph glyph-name="guilsinglleft" unicode="&#x2039;" horiz-adv-x="290" 
d="M244 96h-88l-110 174l114 178h84l-69 -174z" />
    <glyph glyph-name="guilsinglright" unicode="&#x203a;" horiz-adv-x="290" 
d="M244 270l-110 -174h-88l69 178l-69 174h84z" />
    <glyph glyph-name="Euro" unicode="&#x20ac;" horiz-adv-x="668" 
d="M629 107q-29 -54 -79 -86q-53 -34 -116 -34q-120 0 -190 65q-43 40 -67 111q-10 28 -15.5 55.5t-6.5 55.5h-110l22 72h85v71h-108l22 72h92q13 126 83.5 195t185.5 69q82 0 128 -46l-28 -96q-31 37 -94 37q-65 0 -102 -48q-32 -42 -36 -111h196l-22 -72h-179v-37v-34h160
l-22 -72h-134q0 -99 48 -150q30 -32 91 -32q71 0 102 55z" />
    <glyph glyph-name="trademark" unicode="&#x2122;" horiz-adv-x="702" 
d="M637 378h-78v241l-79 -80l-79 78v-239h-77v362h60l97 -105l96 105h60v-362zM269 665h-76v-288h-83v288h-75v75h234v-75z" />
    <glyph glyph-name="partialdiff" unicode="&#x2202;" horiz-adv-x="494" 
d="M454 350q2 28 3.5 50.5t1.5 40.5q0 88 -46 136t-122 48q-52 0 -86.5 -19.5t-60.5 -58.5h-23q38 78 81.5 112.5t104.5 34.5q33 -1 65.5 -13.5t58 -41.5t41 -75.5t14.5 -114.5q0 -174 -75 -310q-85 -154 -214 -154q-76 0 -121 44t-45 119q0 44 13.5 85.5t35 76.5t50 62
t58.5 42q56 29 113 29q40 0 72.5 -15t53.5 -37q13 -13 27 -41zM445 307q-19 54 -56.5 82t-83.5 28q-44 0 -87 -31q-42 -30 -73 -106q-31 -75 -31 -152q0 -55 26.5 -85t68.5 -30q60 0 123 63q78 80 113 231z" />
    <glyph glyph-name="product" unicode="&#x220f;" horiz-adv-x="823" 
d="M605 655h-388v-776q0 -42 18 -59t61 -17h18v-18h-292v18h18q43 0 61 17t18 59v721q0 40 -18 57.5t-61 17.5h-18v18h779v-18h-17q-43 0 -61 -17.5t-18 -57.5v-721q0 -42 18 -59t61 -17h17v-18h-292v18h17q43 0 61 17t18 59v776z" />
    <glyph glyph-name="summation" unicode="&#x2211;" horiz-adv-x="713" 
d="M662 -215h-641v18l327 439l-327 433v18h624l13 -164h-19q-8 67 -38 96t-84 29h-361l274 -370l-307 -413h399q36 0 75 13q28 9 46.5 32.5t30.5 74.5l19 -4z" />
    <glyph glyph-name="minus" unicode="&#x2212;" horiz-adv-x="544" 
d="M494 226h-444v101h444v-101z" />
    <glyph glyph-name="fraction" unicode="&#x2215;" horiz-adv-x="467" 
d="M127 -126h-101l312 892h101z" />
    <glyph glyph-name="radical" unicode="&#x221a;" horiz-adv-x="549" 
d="M512 913h36l-152 -951l-242 498l-97 -44l-16 31l146 74l198 -402z" />
    <glyph glyph-name="infinity" unicode="&#x221e;" horiz-adv-x="713" 
d="M319 326q33 76 72 105q40 30 109 30q77 0 133 -57q54 -56 54 -147q0 -88 -53 -147q-52 -58 -118 -58q-48 0 -90 36q-27 23 -74 104q-32 -61 -69 -87.5t-90 -26.5q-70 0 -118 50q-49 50 -49 130t45 130q45 49 105 49q43 0 74 -22q31 -21 69 -89zM366 227q18 -39 35.5 -64
t36 -39.5t38.5 -20t42 -5.5q30 0 56 11.5t44.5 32t29.5 50t11 65.5q0 73 -43 119q-42 47 -95 47q-34 0 -59 -17t-45 -55q-13 -24 -51 -124zM305 288q-24 54 -55 79.5t-76 25.5q-26 0 -48 -9.5t-38 -27t-25.5 -42.5t-9.5 -55q0 -66 34 -104q34 -39 78 -39q46 0 82 42
q24 29 58 130z" />
    <glyph glyph-name="integral" unicode="&#x222b;" horiz-adv-x="274" 
d="M106 721q5 76 25 124q13 33 36 49t45 16q25 0 43 -16.5t18 -36.5q0 -23 -12.5 -36.5t-31.5 -13.5q-18 0 -38 17q-10 10 -19 10q-8 0 -14 -7t-6 -24q0 -10 1.5 -27.5t3.5 -43.5q18 -201 18 -324q0 -17 -2 -88.5t-6 -199.5q-5 -144 -44 -194q-26 -33 -65 -33
q-26 0 -42 16.5t-16 42.5q0 22 12.5 35t31.5 13t33 -15q15 -16 25 -16q19 0 19 30q0 10 -1.5 24.5t-3.5 33.5q-8 70 -12 165q-6 121 -6 215z" />
    <glyph glyph-name="approxequal" unicode="&#x2248;" horiz-adv-x="408" 
d="M368 338q-11 -25 -37.5 -42.5t-54.5 -17.5q-44 0 -79 22q-29 18 -50 18q-39 0 -60 -25l-47 36q14 27 43 45.5t61 18.5q36 0 62 -15q43 -26 66 -24q10 1 16 1t9 1q18 4 28 19zM368 193q-35 -60 -92 -60q-44 0 -79 22q-29 18 -50 18q-36 0 -60 -25l-47 36q13 26 43 45
t61 19q36 0 62 -15q42 -24 66 -24q36 0 53 21z" />
    <glyph glyph-name="notequal" unicode="&#x2260;" horiz-adv-x="549" 
d="M12 399h294l103 261h39l-101 -261h190v-45h-208l-70 -181h278v-46h-296l-103 -258h-39l102 258h-189v46h207l71 181h-278v45z" />
    <glyph glyph-name="lessequal" unicode="&#x2264;" horiz-adv-x="549" 
d="M536 120l-524 223v40l524 222v-50l-464 -192l464 -193v-50zM12 -34h525v-45h-525v45z" />
    <glyph glyph-name="greaterequal" unicode="&#x2265;" horiz-adv-x="549" 
d="M12 605l524 -223v-40l-524 -222v50l464 192l-464 193v50zM12 -34h525v-45h-525v45z" />
    <glyph glyph-name="lozenge" unicode="&#x25ca;" horiz-adv-x="494" 
d="M268 694l204 -348l-204 -346h-54l-191 346l191 348h54zM242 647l-166 -301l166 -300l175 300z" />
    <glyph glyph-name="fi" unicode="&#xfb01;" horiz-adv-x="623" 
d="M544 0h-128v424h-195v-424l-128 -1q2 32 0 424h-73v94h72v52q0 78 43 124q40 43 106 43h106v-82h-56q-70 0 -70 -82v-55h323v-517zM560 667q0 -33 -23 -56t-56 -23q-32 0 -54.5 23t-22.5 56q0 32 22.5 55t54.5 23q33 0 56 -23t23 -55z" />
    <glyph glyph-name="fl" unicode="&#xfb02;" horiz-adv-x="625" 
d="M608 0h-26q-21 0 -60 -1q-58 -1 -91.5 34t-33.5 90v532h-106q-70 0 -70 -82v-56h120v-93h-120l1 -424l-129 -1q2 32 0 424h-73v94h72v52q0 36 11 67t31 53.5t48 35t63 12.5h281v-598q0 -32 19 -48q16 -15 39 -15h24v-76z" />
    <glyph glyph-name="hyphenminus" horiz-adv-x="418" 
d="M368 226h-318v98h318v-98z" />
    </font>
</defs>
</svg>
